/* XPM */
static char * gg_info_xpm[] = {
"32 32 25 1",
" 	c #FFFFFF",
".	c #FAFDFF",
"+	c #C7E7FF",
"@	c #A0D6FF",
"#	c #83CAFF",
"$	c #72C2FF",
"%	c #6CC0FF",
"&	c #F9FCFF",
"*	c #B0DDFF",
"=	c #71C2FF",
"-	c #6BBFFF",
";	c #D0EBFF",
">	c #7BC6FF",
",	c #BCE2FF",
"'	c #BFE3FF",
")	c #D6EDFF",
"!	c #000000",
"~	c #84CAFF",
"{	c #BBE2FF",
"]	c #7EC7FF",
"^	c #D4ECFF",
"/	c #ABDBFF",
"(	c #8DCEFF",
"_	c #78C5FF",
":	c #6DC0FF",
"                                ",
"                                ",
"           .+@#$%$#@+.          ",
"         &*=---------=*&        ",
"        ;>------------->;       ",
"       ,-----------------,      ",
"      '-------------------'     ",
"     )----------!!---------)    ",
"     ~----------!!---------~    ",
"    {-----------------------{   ",
"    ]-----------------------]   ",
"   ^---------!!!!!-----------^  ",
"   /---------!!!!!-----------/  ",
"   (------------!!-----------(  ",
"   _------------!!-----------_  ",
"   :------------!!-----------:  ",
"   :------------!!-----------:  ",
"   _------------!!-----------_  ",
"   (------------!!-----------(  ",
"   /------------!!-----------/  ",
"   ^--------!!!!!!!!!!-------^  ",
"    ]-------!!!!!!!!!!------]   ",
"    {-----------------------{   ",
"     ~---------------------~    ",
"     )---------------------)    ",
"      '-------------------'     ",
"       ,-----------------,      ",
"        ;>------------->;       ",
"         &*=---------=*&        ",
"           .+@#$%$#@+.          ",
"                                ",
"                                "};
