/* XPM */
static char *REND_xpm[]={
"32 32 188 2",
"      c #C0C0C0",
" 0    c #BFC1C1",
" 1    c #B9C0C0",
" 2    c #AFBCBC",
" 3    c #9CAEAE",
" 4    c #859E9E",
" 5    c #779292",
" 6    c #7E9797",
" 7    c #95A8A8",
" 8    c #AAB7B7",
" 9    c #BEC1C1",
" a    c #B4BFBF",
" b    c #96ABAB",
" c    c #597981",
" d    c #537586",
" e    c #537690",
" f    c #527796",
" g    c #4F759A",
" h    c #4A729C",
" i    c #486F93",
" j    c #446786",
" k    c #416178",
" l    c #486775",
" m    c #778F96",
" n    c #B1BCBC",
" o    c #BCC0C0",
" p    c #B7C0C0",
" q    c #99ADAD",
" r    c #5F7F8B",
" s    c #5B7D94",
" t    c #5E80A2",
" u    c #6284A6",
" v    c #6485A7",
" w    c #5E80A4",
" x    c #5A7EA3",
" y    c #5378A0",
" z    c #476C94",
" A    c #426488",
" B    c #3D5D7C",
" C    c #3A586B",
" D    c #6D858D",
" E    c #BFC0C0",
" F    c #B0BCBC",
" G    c #68878D",
" H    c #5A7B90",
" I    c #6284A4",
" J    c #6989A9",
" K    c #708EAC",
" L    c #7490AE",
" M    c #7491AE",
" N    c #587CA2",
" O    c #4F769E",
" P    c #3E5E7F",
" Q    c #385572",
" R    c #3F5B69",
" S    c #9BA8AC",
" T    c #AEBBBB",
" U    c #5F7F89",
" V    c #5B7D96",
" W    c #6888A8",
" X    c #718FAC",
" Y    c #7A95B0",
" Z    c #819AB4",
" &    c #859DB5",
"0     c #879EB6",
"00    c #5B7EA3",
"01    c #416386",
"02    c #3C5C7B",
"03    c #385470",
"04    c #344E60",
"05    c #889A9F",
"06    c #5E7E88",
"07    c #5B7E9A",
"08    c #8099B3",
"09    c #8AA0B8",
"0a    c #92A6BB",
"0b    c #96A9BC",
"0c    c #98ABBD",
"0d    c #44688E",
"0e    c #3F6080",
"0f    c #3A5875",
"0g    c #36506C",
"0h    c #334C5E",
"0i    c #8A9AA0",
"0j    c #65858A",
"0k    c #FFFFFF",
"0l    c #A6B4C3",
"0m    c #A0B0C0",
"0n    c #8DA3B8",
"0o    c #334C5D",
"0p    c #A2ADB1",
"0q    c #8AA1A1",
"0r    c #B6C0CA",
"0s    c #AFBBC7",
"0t    c #A5B4C3",
"0u    c #324A63",
"0v    c #4E6674",
"0w    c #557580",
"0x    c #BCC4CC",
"0y    c #C2C8CF",
"0z    c #C5CBD0",
"0A    c #C3C9D0",
"0B    c #BAC3CC",
"0C    c #456A90",
"0D    c #395674",
"0E    c #354F69",
"0F    c #314960",
"0G    c #88989F",
"0H    c #89A0A0",
"0I    c #4C6E87",
"0J    c #CCD0D4",
"0K    c #4B6373",
"0L    c #56757C",
"0M    c #486C91",
"0N    c #D0D3D5",
"0O    c #B9C2CC",
"0P    c #324A62",
"0Q    c #9DA7AD",
"0R    c #486776",
"0S    c #466B91",
"0T    c #A7B5C4",
"0U    c #CDD0D4",
"0V    c #6384A7",
"0W    c #51789F",
"0X    c #476C93",
"0Y    c #406183",
"0Z    c #758792",
"0&    c #446478",
"1     c #466B90",
"10    c #536A7A",
"11    c #40607B",
"12    c #44678C",
"13    c #3F576B",
"14    c #738F8F",
"15    c #3D5C79",
"16    c #486E95",
"17    c #A8B6C4",
"18    c #8CA2B8",
"19    c #3C5B7A",
"1a    c #38536F",
"1b    c #344C66",
"1c    c #354E65",
"1d    c #759191",
"1e    c #90A5BA",
"1f    c #39556F",
"1g    c #344D67",
"1h    c #385067",
"1i    c #375268",
"1j    c #455C70",
"1k    c #344E5F",
"1l    c #37526E",
"1m    c #5D7181",
"1n    c #415C67",
"1o    c #486F96",
"1p    c #7E8C97",
"1q    c #778E93",
"1r    c #36516C",
"1s    c #374F66",
"1t    c #A2A8AD",
"1u    c #ACB8B8",
"1v    c #314B5B",
"1w    c #5F7383",
"1x    c #667F86",
"1y    c #314961",
"1z    c #3B5877",
"1A    c #364E66",
"1B    c #959EA5",
"1C    c #385361",
"1D    c #344E68",
"1E    c #6F808D",
"1F    c #9AA8AB",
"1G    c #ADB0B3",
"1H    c #2F485A",
"1I    c #4F6577",
"1J    c #9EA5AB",
"1K    c #8F9DA3",
"1L    c #576B7D",
"1M    c #A5B0B3",
"1N    c #314860",
"1O    c #364E65",
"1P    c #4E6676",
"1Q    c #617484",
"1R    c #939DA5",
"1S    c #516878",
"1T    c #3C5569",
"1U    c #344D64",
"1V    c #435A6E",
"1W    c #5B6F80",
"                                                                ",
"                     0 1 2 3 4 5 5 6 7 8 1 0                    ",
"                 9 a b c d e f g h i j k l m n o                ",
"               p q r s t u v u w x y h z A B C D p              ",
"           E F G H I J K L M L K J u N O z A P Q R S E          ",
"         0 T U V W X Y Z &0  & Z Y X W00 O z0102030405 0        ",
"         F0607 W L08090a0b0c0b0a0908 L W N h0d0e0f0g0h0i        ",
"       p0j0k0k0k0k0k0k0k0k0k0l0m0c0n0k0k0k0k0k0k0k0k0k0o0p      ",
"     90q0k0k0k0k0k0k0k0k0k0k0r0s0t0k0k0k0k0k0k0k0k0k0k0u0v o    ",
"     n0w0k0k K Z0a0m0s0x0y0z0A0B0s0k0k Z K w O0C0e0D0E0u0F0G    ",
"   00H0I0k0k L &0k0k0k0k0k0k0J0y0r0k0k & L0k0k0k0k0k0k0u0u0K 0  ",
"   10L0M0k0k M0 0k0k0k0k0k0k0N0z0O0k0k0  M0k0k0k0k0k0k0u0u0P0Q  ",
"   20R0S0k0k L &0b0T0r0A0k0k0U0A0r0k0k & L0V0W0X0Y0k0k0u0u0u0Z  ",
"   30&1 0k0k0k0k0k0k0k0k0k0k0A0x0s0k0k0k0k0k0k0k0k0k0k0u0u0u10  ",
"   41112 h0k0k0k0k0k0k0k0k0k0r0s0t0c0k0k0k0k0k0k0k0k0k0u0u0u13  ",
"  14150116 y u X080n0c0m0l170l0m0c1808 X0V y16 A191a1b0u0u0u1c  ",
"  1d0f0e0d h N W L08091e0b0c0b0a0908 L W N h0d0e0f0g0u0u0u0u0u  ",
"   41f1901 z O00 W X Y Z &0  & Z Y X W00 O0X0119031g0u0u0u0u1h  ",
"   71i0D P0k0k0k0k0k0k0k0k0k L K J u0k0k0k0k0k0k0k0k0k0u0u0u1j  ",
"   81k1l0f0k0k0k0k0k0k0k0k0k0k w x y0k0k0k0k0k0k0k0k0k0k0u0u1m  ",
"   11n1g1l0k0k010d0k0k O0W0k0k O h1o0k0k P0f1l1g0u0u0k0k0u0u1p  ",
"   01q0P1g0k0k190e0k0k0C0S0k0k1 12010k0k0D1r1g0u0u0u0k0k0u1s1t  ",
"    1u1v0u0k0k030f0k0k0e0Y0k0k0e P190k0k0k0k0k0k0k0k0k0u0u1w    ",
"     91x1y0k0k1g0g0k0k0D1z0k0k0D Q1a0k0k0k0k0k0k0k0k0k0u1A1B    ",
"       p1C0k0k0u0u0k0k0E0g0k0k0E1D1b0k0k0u0u0u0u0u0k0k0k1E      ",
"        1F0k0k0u0u0k0k0u0u0k0k0u0u0u0k0k0u0u0u0u0u0u0k0k1G      ",
"         E051H0u0u0u0u0u0u0u0u0u0u0u0u0u0u0u0u0u0u0u1I1J        ",
"           01K0o0u0u0u0u0u0u0u0u0u0u0u0u0u0u0u0u0u1L1J          ",
"              1M0v1N0u0u0u0u0u0u0u0u0u0u0u0u0u1O1E1G            ",
"                 o0G1P1y0u0u0u0u0u0u0u0u0u1A1Q1R                ",
"                     00Q0Z1S1T1U0u1O1V1W1p1t                    ",
"                                                                "};
